<svg width="80" height="105" viewBox="0 0 80 105" fill="none" xmlns="http://www.w3.org/2000/svg">
<path fill-rule="evenodd" clip-rule="evenodd" d="M30.4342 9.93319C30.4134 9.8959 30.384 9.84413 30.3463 9.77915C30.2676 9.64374 30.1522 9.4508 30.0009 9.21212C29.6985 8.73514 29.251 8.07325 28.6642 7.32138C27.4949 5.82337 25.7493 3.93861 23.4673 2.45639C21.178 0.969487 18.326 -0.125887 14.9788 0.0116589C11.6314 0.149216 7.89845 1.51543 3.83994 4.75743C3.23033 5.22699 2.75582 5.91512 2.37469 6.70113C1.98765 7.49934 1.66652 8.46206 1.3974 9.54605C0.859315 11.7134 0.503323 14.4731 0.284997 17.608C-0.15211 23.8844 -0.0462629 31.8084 0.331191 39.8172C1.0858 55.8285 2.93413 72.3293 3.77076 76.951C4.02307 78.3449 4.29698 79.7284 4.56968 81.1057C5.23357 84.4591 5.89024 87.7758 6.21031 91.1158C6.34821 92.5548 6.58789 94.0187 6.82196 95.4484C6.90735 95.97 6.99199 96.487 7.07068 96.9966C7.3698 98.9337 7.59233 100.812 7.51695 102.657C7.49748 103.134 7.5478 103.613 7.75027 104.027C7.97405 104.486 8.35388 104.801 8.8272 104.932C9.25216 105.049 9.67504 104.997 10.0155 104.912C10.3668 104.825 10.7208 104.679 11.0534 104.517C11.7165 104.193 12.4198 103.74 13.0283 103.336C13.1597 103.249 13.2855 103.165 13.4058 103.085C13.8738 102.773 14.2576 102.517 14.5549 102.352C20.4166 99.1125 26.4496 95.0195 31.5864 90.7263C35.0716 87.8135 41.4823 82.939 47.4111 78.431C51.5664 75.2714 55.485 72.2919 57.9937 70.2938L58.0098 70.281L58.0254 70.2675C70.8132 59.1921 77.3775 50.5923 79.3463 44.2413C80.3414 41.0312 80.1932 38.2895 78.9489 36.1082C77.7473 34.0017 75.6235 32.5944 72.981 31.7674C72.0055 30.8962 70.5819 30.6035 69.077 30.5936C67.4266 30.5828 65.4487 30.9102 63.2987 31.4559C58.9905 32.5492 53.7885 34.5727 48.7306 36.8272C43.6641 39.0856 38.7035 41.5933 34.8668 43.6747C32.9486 44.7153 31.3054 45.6525 30.0667 46.4015C29.6414 46.6586 29.2609 46.8953 28.9314 47.1077C28.5499 46.7338 27.9378 46.7251 27.5457 47.0949C27.5223 47.117 27.2672 47.3626 26.8885 47.7272C28.5462 42.0464 30.4387 35.2031 31.5717 28.8163C32.2589 24.9427 32.6746 21.1962 32.5787 17.9533C32.4845 14.7709 31.8946 11.9209 30.4342 9.93319ZM24.0142 50.4094C25.8476 44.2119 28.2659 36.0007 29.6025 28.4669C30.2784 24.6572 30.6698 21.0615 30.5795 18.0125C30.4884 14.9341 29.9094 12.567 28.791 11.0749L28.7459 11.0147L28.7108 10.9494L28.7103 10.9484L28.7072 10.9428L28.6905 10.9128C28.675 10.8849 28.6505 10.8415 28.6171 10.7841C28.5504 10.6693 28.4483 10.4984 28.3118 10.2831C28.0384 9.85194 27.6282 9.24459 27.0876 8.55196C26.0019 7.16097 24.4132 5.45567 22.3779 4.13365C20.3497 2.81631 17.9012 1.89326 15.061 2.00997C12.2231 2.12659 8.88441 3.28569 5.08101 6.32581L5.0727 6.33245L5.06425 6.33892C4.79277 6.5466 4.48476 6.93346 4.17429 7.57374C3.86785 8.20572 3.58736 9.02547 3.33847 10.028C2.84052 12.0336 2.49495 14.6629 2.28016 17.747C1.85106 23.9085 1.95285 31.7425 2.32897 39.723C3.08151 55.6904 4.92409 72.0942 5.73878 76.5948C5.97822 77.9175 6.24388 79.2596 6.51204 80.6143C7.1837 84.0074 7.87102 87.4796 8.20119 90.925C8.33222 92.2924 8.55559 93.6568 8.78595 95.0639C8.8736 95.5994 8.96227 96.141 9.04725 96.6913C9.35078 98.657 9.59889 100.692 9.51529 102.739C9.51127 102.837 9.51319 102.915 9.51763 102.975C9.52234 102.974 9.52715 102.973 9.53208 102.972C9.69642 102.931 9.91137 102.849 10.1761 102.719C10.7077 102.46 11.3122 102.075 11.923 101.67C12.0323 101.597 12.1431 101.523 12.2542 101.449C12.7295 101.131 13.2089 100.811 13.5875 100.602C19.343 97.4207 25.2697 93.3991 30.3038 89.1917C33.798 86.2714 40.3291 81.304 46.3107 76.7545C50.439 73.6146 54.3055 70.6738 56.7316 68.7422C69.4704 57.7069 75.6456 49.4243 77.436 43.6491C78.3208 40.7949 78.1031 38.662 77.2117 37.0992C76.3132 35.5242 74.6226 34.3384 72.1759 33.6128L71.9196 33.5367L71.7354 33.343C71.3316 32.9182 70.5069 32.6031 69.0638 32.5936C67.6575 32.5843 65.8669 32.8675 63.7907 33.3944C59.6465 34.4462 54.5656 36.416 49.5449 38.654C44.5328 40.8881 39.619 43.372 35.8205 45.4327C33.9211 46.463 32.3064 47.3844 31.1015 48.113C30.4984 48.4776 30.0042 48.7902 29.6309 49.0414C29.2379 49.306 29.0332 49.4671 28.9647 49.5338C28.5928 49.8963 27.9958 50.2178 27.5255 50.4645C27.3969 50.532 27.2709 50.5971 27.1483 50.6605C26.7938 50.8438 26.467 51.0128 26.1836 51.1824C25.5617 51.781 24.9832 52.3372 24.6394 52.6666C24.4694 52.8295 24.3386 52.9544 24.3004 52.989C24.297 52.9921 24.2862 53.0018 24.2728 53.0131C24.2684 53.0169 24.2492 53.0331 24.2237 53.0522C24.2147 53.0589 24.1791 53.0856 24.13 53.1143C24.1009 53.1307 24.0187 53.1704 23.9649 53.1916C23.8514 53.2251 23.4497 53.2355 23.179 53.146C22.8436 52.8749 22.6252 52.2595 22.6498 52.0306C22.6759 51.9367 22.7323 51.8006 22.756 51.7565C22.7928 51.6918 22.8295 51.6451 22.8373 51.6351L22.838 51.6342C22.8609 51.605 22.8807 51.5832 22.8843 51.5793C22.8968 51.5654 22.9076 51.5543 22.9108 51.5509C22.9257 51.5356 22.9457 51.5157 22.9627 51.499C23.0018 51.4604 23.0666 51.397 23.1588 51.3072C23.4516 51.0219 23.7429 50.7167 24.0142 50.4094Z" fill="#261397"/>
</svg>
