<svg width="204" height="303" viewBox="0 0 204 303" fill="none" xmlns="http://www.w3.org/2000/svg">
<path d="M36.9612 128.326C42.5112 138.91 42.5846 152.612 44.4171 165.091C46.7736 181.138 48.64 197.012 49.2036 213.392C50.0933 239.245 51.9102 265.373 55.601 290.789C55.791 292.097 56.5699 301.265 56.4294 300.994C55.597 299.389 55.4503 296.246 55.0027 294.465C53.637 289.031 51.8811 283.787 50.2622 278.491C45.9193 264.286 42.362 249.497 38.434 235.071C31.059 207.985 23.4557 177.141 25.7774 147.723C26.7819 134.994 27.6525 121.721 30.702 109.563C33.3762 98.9012 38.752 93.434 44.9234 86.5534C70.0818 58.5033 103.45 55.0542 131.218 78.1228C139.193 84.7477 143.253 101.146 143.783 113.557C144.312 125.951 142.871 139.429 138.858 150.638C135.073 161.215 129.553 168.746 123.486 176.881C118.115 184.085 110.142 186.562 105.261 194.629C100.203 202.989 96.1132 208.441 93.2947 218.717C91.0212 227.005 90.4224 239.146 92.006 247.558C99.7798 288.855 139.073 284.886 162.975 279.189C170.111 277.488 174.817 273.89 180.464 267.779C184.909 262.969 190.707 259.649 194.363 253.58C201.34 242.001 203.187 229.892 201.313 214.977C194.717 162.49 171.853 115.487 150.457 72.4179C139.607 50.5786 125.582 34.1792 111.52 16.5733C107.321 11.3161 100.198 3.81243 94.3993 2.5646C86.1131 0.781432 78.0524 3.54998 70.0525 6.30448C64.088 8.35818 57.6689 13.6514 53.1617 19.3624C47.4742 26.569 43.861 35.7054 38.434 43.006C31.9843 51.6825 24.2133 58.6764 17.0789 66.2693C13.1265 70.4756 10.3256 77.155 6.76948 82.0528C4.87509 84.6619 -1.58037 90.4017 4.65237 86.1096" stroke="#7D70EA" stroke-width="3" stroke-linecap="round"/>
</svg>
