<svg width="50" height="73" viewBox="0 0 50 73" fill="none" xmlns="http://www.w3.org/2000/svg">
<path d="M10.0411 31.1521C11.3176 33.5945 11.3345 36.7565 11.7559 39.6363C12.2979 43.3395 12.7272 47.0028 12.8568 50.7828C13.0614 56.7488 13.4794 62.7783 14.3282 68.6435C14.3719 68.9455 14.5511 71.0612 14.5188 70.9986C14.3273 70.6283 14.2936 69.9029 14.1906 69.492C13.8765 68.238 13.4726 67.0277 13.1003 65.8057C12.1014 62.5275 11.2833 59.1147 10.3798 55.7856C8.68358 49.5349 6.93481 42.4172 7.4688 35.6283C7.69985 32.6909 7.90007 29.6279 8.60145 26.8223C9.21654 24.3618 10.453 23.1002 11.8724 21.5123C17.6588 15.0392 25.3334 14.2433 31.7203 19.5668C33.5544 21.0956 34.4882 24.8798 34.6101 27.7438C34.7319 30.6041 34.4003 33.7143 33.4774 36.3012C32.6068 38.7419 31.3371 40.4798 29.9419 42.3571C28.7064 44.0196 26.8727 44.5913 25.75 46.453C24.5867 48.382 23.646 49.6403 22.9978 52.0116C22.4749 53.9243 22.3372 56.726 22.7014 58.6673C24.4894 68.1974 33.5268 67.2815 39.0243 65.9666C40.6655 65.5741 41.748 64.7438 43.0468 63.3336C44.0692 62.2235 45.4026 61.4575 46.2436 60.0569C47.8481 57.3848 48.2731 54.5905 47.842 51.1485C46.325 39.0362 41.0661 28.1894 36.145 18.2503C33.6496 13.2104 30.4238 9.42598 27.1896 5.36307C26.2239 4.14988 24.5855 2.41825 23.2518 2.13029C21.346 1.71879 19.492 2.35769 17.6521 2.99334C16.2802 3.46727 14.8038 4.68878 13.7672 6.0067C12.4591 7.66977 11.628 9.77817 10.3798 11.4629C8.89638 13.4652 7.10906 15.0792 5.46814 16.8314C4.55911 17.8021 3.9149 19.3435 3.09698 20.4737C2.66127 21.0758 1.17652 22.4004 2.61005 21.4099" stroke="#261397" stroke-width="3" stroke-linecap="round"/>
</svg>
