<svg width="84" height="22" viewBox="0 0 84 22" fill="none" xmlns="http://www.w3.org/2000/svg">
<path d="M3.79485 5.77117C-4.77889 17.8838 8.6942 19.6626 13.1852 18.4319C15.6348 17.7607 20.7582 13.0637 19.3092 8.96594C19.3092 8.96594 18.0846 5.4162 16.0431 4.11462C14.0017 2.81305 11.552 2.70573 6.65275 2.70573M16.8596 1.08553C22.1671 -0.165675 22.1023 12.6814 23.3919 15.4225C25.025 17.4737 26.3578 19.8361 28.8074 18.1953C30.8488 17.6473 32.7822 2.15048 35.6401 2.81305C38.498 3.47562 36.6594 12.6752 38.498 12.5511M38.498 12.5511C41.4507 12.9967 45.1132 11.2351 45.3964 11.0722C47.5452 9.83588 48.8198 8.17749 48.546 5.55823C48.3867 4.0353 44.6221 4.11462 42.5808 5.16722C40.1311 6.43033 37.2672 10.0551 38.498 12.5511ZM38.498 12.5511C37.368 17.9193 43.8056 21 45.3964 21C51.1545 21 53.7982 16.9414 56.1614 13.7463L57.8624 8.2014M57.9036 8.10525C57.9168 7.83868 57.8624 8.2014 57.8624 8.2014M57.9036 8.10525C57.8896 8.13716 57.8759 8.16922 57.8624 8.2014M57.9036 8.10525C58.6718 6.35639 60.2672 5.00277 61.873 3.87802C63.8917 2.46413 65.9808 2.02398 68.4308 2.15048C72.69 2.37039 73.9301 6.84594 69.9351 8.77667C69.5001 8.98687 66.6331 9.79713 63.9086 10.27M57.8773 9.17897C57.8773 9.17897 58.1288 13.702 58.4486 15.896M58.4486 15.896C58.4615 15.9843 58.4747 16.0723 58.4884 16.1601C58.5242 16.3912 58.8416 19.525 58.9115 19.4969C59.0878 19.4259 58.8097 17.7803 58.4486 15.896ZM63.9086 10.27C63.9086 10.27 59.0956 10.8495 58.7704 10.0309C58.6079 9.62192 60.7988 9.39196 61.0504 9.39196L63.9086 10.27ZM63.9086 10.27C64.5398 10.7023 64.0224 10.2063 64.596 10.8591C66.9178 13.5017 70.7851 15.533 74.2093 16.0891C79.4209 16.9354 81.0516 12.0425 83 7.90101" stroke="#C2B4F0" stroke-width="2" stroke-linecap="round"/>
</svg>
