<svg width="108" height="75" viewBox="0 0 108 75" fill="none" xmlns="http://www.w3.org/2000/svg">
<path d="M22.3777 12.0756C15.3705 10.4163 6.54077 12.4958 4.27037 20.3234C1.89752 28.5042 15.939 30.1536 20.6662 32.6951C25.4839 35.2853 30.2922 38.8827 31.8592 44.3481C33.2655 49.2529 31.6336 52.3808 26.4852 53.2804C22.6697 53.9471 18.823 53.0134 15.1039 52.2024C11.4249 51.4001 6.82211 50.8174 3.58578 48.6602C1.25391 47.1059 0.72106 45.7854 1.12127 43.1845M32.4225 35.8762C33.461 34.9725 34.4539 34.0309 35.396 33.0526M35.396 33.0526C41.3733 26.8448 45.3028 19.1551 45.8404 10.243C46.1059 5.84152 44.6121 -2.7859 39.1999 2.85078C34.273 7.98211 34.4522 16.431 34.6474 23.1109C34.7447 26.4379 35.0468 29.7472 35.396 33.0526ZM35.396 33.0526C35.9063 37.8837 36.5171 42.7064 36.7354 47.5635C36.7889 48.7528 36.6805 50.366 37.1119 51.5162C37.1312 51.5677 37.6364 49.2257 37.7109 48.9324C39.0662 43.5968 42.3102 37.7011 46.5935 34.1651C48.002 33.0022 49.9369 32.0202 51.7963 32.6592C54.8739 33.717 55.3289 38.0486 55.6642 40.753C56.0389 43.7748 55.6619 48.792 59.4295 49.8051C66.3149 51.6565 71.0827 46.1321 75.5515 42.0364C76.8828 42.6501 80.3019 44.6839 81.8967 45.031M76.3454 19.5517C70.8281 16.0808 65.0674 17.6132 61.5755 22.9398C58.4999 27.6312 55.6203 37.0204 62.6879 39.8632C65.2428 40.8909 67.9165 40.031 70.2526 38.8536C74.9748 36.4737 76.6548 31.6822 77.6803 26.7386C78.6759 21.9396 78.1102 17.8159 73.5728 15.5476M81.4047 22.6318C81.4755 28.8633 82.0844 35.0859 82.3833 41.3116M82.3833 41.3116C82.4449 42.5942 82.4933 43.8769 82.5212 45.1599M82.3833 41.3116C82.1918 42.5448 82.0327 43.7853 81.8967 45.031M82.3833 41.3116C82.5541 40.2121 82.7505 39.1185 82.9792 38.0323C83.9225 33.5524 85.8501 29.7097 89.7224 27.0808C93.1032 24.7856 97.6313 23.6852 100.932 26.7728C104.091 29.727 110.446 40.0435 104.646 43.1315C98.986 46.1454 90.8351 46.1942 84.6565 45.4929C83.9895 45.4173 83.2654 45.3053 82.5212 45.1599M82.5212 45.1599C82.5495 46.4684 82.5565 47.7772 82.5342 49.0864C82.399 57.0276 81.2957 64.9782 79.6248 72.7347L79.6238 72.7391C79.5366 73.1439 79.2825 74.3236 79.2825 73.9154C79.2825 71.2522 79.8412 68.5155 80.1895 65.89C81.0998 59.0289 81.1413 51.9507 81.8967 45.031M82.5212 45.1599C82.3143 45.1195 82.1059 45.0765 81.8967 45.031" stroke="#FFC19A" stroke-width="2" stroke-linecap="round"/>
</svg>
