<svg width="401" height="226" viewBox="0 0 401 226" fill="none" xmlns="http://www.w3.org/2000/svg">
<path d="M12.2593 104.876C11.3273 107.279 2.32341 129.454 2.32341 129.454C-0.422219 127.218 6.79049 90.1474 6.79049 90.1474C6.90627 85.0421 7.52891 80.0888 8.57546 75.1652C10.8937 64.2588 11.4531 55.7021 20.5535 46.5396M20.5317 19.6299C36.4547 16.7018 79.7549 -14.9684 122.681 13.4791C137.478 30.656 130.454 44.6959 122.681 48.1592C109.195 54.168 93.5248 55.7789 71.5937 54.5114C55.8159 53.5995 33.4501 49.5419 26.7043 40.3889C26.7043 40.3889 29.0108 24.243 34.1436 35.7522C46.558 39.8736 42.2052 50.0478 40.2872 53.6426C35.139 63.2913 28.2405 72.5653 32.6999 84.2165C36.7231 94.7281 38.811 145.518 63.4131 152.657C86.6055 159.388 134.465 125.315 134.465 125.315C149.488 117.503 177.032 92.1851 177.032 92.1851C177.032 92.1851 186.147 87.6059 190.274 85.1244C190.473 85.0052 194.352 83.1316 194.352 83.1316L197.389 102.666C197.389 102.666 225.004 127.826 219.682 139.19C217.592 143.653 212.891 148.058 205.392 150.45C197.444 152.985 174.849 155.834 162.747 150.977C156.215 148.355 153.729 143.859 158.784 142.188C164.068 140.44 180.135 140.441 187.307 140.787C235.861 143.127 276.28 140.78 312.229 131.063C341.155 123.245 371.788 115.258 379.548 98.2231C380.349 96.4653 383.207 92.3393 378.087 90.0986C369.938 86.5326 360.836 89.9344 357.331 91.9047C343.222 99.8346 340.595 112.59 331.51 122.294C315.339 139.569 288.351 152.775 266.606 167.917C261.097 171.753 252.532 180.719 252.532 180.719C248.528 188.159 274.4 187.226 286.593 189.878C307.686 194.465 337.054 226.215 355.546 224.185C355.546 224.185 386.726 219.795 399.579 224.112" stroke="#261397" stroke-opacity="0.07" stroke-width="2" stroke-linecap="round"/>
</svg>
