<svg width="262" height="148" viewBox="0 0 262 148" fill="none" xmlns="http://www.w3.org/2000/svg">
<path d="M8.52289 69.0072C7.91676 70.5696 2.06133 84.9908 2.06133 84.9908C0.275786 83.5364 4.96637 59.4288 4.96637 59.4288C5.04166 56.1086 6.12718 49.6855 6.12718 49.6855C7.63476 42.5928 7.99859 37.0282 13.9168 31.0696M13.9026 13.5696C24.2577 11.6654 52.4167 -8.93042 80.3328 9.56961C94.5 23 85.3877 29.8706 80.3328 32.1229C71.5626 36.0305 61.3716 37.0782 47.1094 36.2539C36.8487 35.6608 22.3037 33.0221 17.9168 27.0696C17.9168 27.0696 15.5 21.6459 22.7547 24.0543C30.8281 26.7345 27.9973 33.3511 26.75 35.6889C23.402 41.9636 21.8158 47.5 21.8158 55.5718C21.8158 55.5718 25.79 95.4372 41.7893 100.08C56.8719 104.458 87.9961 82.2988 87.9961 82.2988L115.678 60.7539C115.678 60.7539 121.606 57.7759 124.29 56.1621C124.419 56.0847 126.942 54.8662 126.942 54.8662L128.917 67.5697C128.917 67.5697 146.875 83.9317 143.415 91.3219C142.055 94.2247 138.998 97.0893 134.121 98.6448C128.952 100.293 114.259 102.146 106.389 98.9875C102.14 97.2825 100.524 94.3589 103.811 93.2716C107.248 92.1348 117.696 92.1359 122.36 92.3608C153.936 93.8829 180.222 92.3559 203.6 86.0374C222.411 80.9531 242.332 75.7589 247.379 64.6805C247.9 63.5374 249.759 60.8542 246.429 59.397C241.129 57.078 235.21 59.2902 232.931 60.5715C223.755 65.7286 222.047 74.0233 216.139 80.3343C205.622 91.5687 188.071 100.157 173.93 110.004C170.348 112.498 164.778 118.33 164.778 118.33C162.173 123.168 178.998 122.561 186.929 124.286C200.646 127.269 219.744 147.917 231.77 146.596C231.77 146.596 252.047 143.741 260.405 146.549" stroke="#261397" stroke-width="2" stroke-linecap="round"/>
</svg>
